<svg width="32" height="31" viewBox="0 0 32 31" fill="none" xmlns="http://www.w3.org/2000/svg">
<path id="Vector" d="M1.5 6.63889C1.5 19.5408 11.9591 30 24.8611 30C25.9341 30 26.9904 29.9277 28.0248 29.7877C29.4926 29.5888 30.5 28.2748 30.5 26.7939V22.6557C30.5 21.2689 29.6124 20.0375 28.2968 19.599L23.2244 17.9081C21.9347 17.4783 20.5517 18.2373 20.2221 19.5563C19.7821 21.3164 17.5902 21.9235 16.3072 20.6406L10.8594 15.1928C9.57652 13.9098 10.1836 11.718 11.9437 11.278C13.2627 10.9482 14.0217 9.56537 13.5919 8.27555L11.9011 3.20326C11.4625 1.8875 10.2312 1 8.84422 1H4.70617C3.22518 1 1.91112 2.00748 1.71242 3.4751C1.57234 4.50973 1.5 5.56586 1.5 6.63889Z" stroke="black" stroke-width="2" stroke-linejoin="round"/>
</svg>
