<svg width="33" height="32" viewBox="0 0 33 32" fill="none" xmlns="http://www.w3.org/2000/svg">
<g id="placeholder-svgrepo-com 1" clip-path="url(#clip0_1_579)">
<path id="Vector" d="M16.4997 0C9.70042 0 4.1687 5.53261 4.1687 12.3331C4.1687 17.1919 6.20299 22.107 10.0517 26.5468C12.9261 29.8628 15.775 31.7416 15.895 31.8199C16.0788 31.94 16.2892 32 16.4997 32C16.7102 32 16.9208 31.94 17.1046 31.8199C17.2244 31.7415 20.0735 29.8628 22.948 26.5468C26.7969 22.107 28.8313 17.1919 28.8313 12.3331C28.8313 5.53261 23.2994 0 16.4997 0ZM16.4988 29.538C14.2309 27.8532 6.37956 21.3658 6.37956 12.3331C6.37956 6.75167 10.9195 2.21086 16.4997 2.21086C22.0802 2.21086 26.6204 6.75167 26.6204 12.3331C26.6204 21.3448 18.7655 27.8492 16.4988 29.538Z" fill="black"/>
</g>
<defs>
<clipPath id="clip0_1_579">
<rect width="32" height="32" fill="white" transform="translate(0.5)"/>
</clipPath>
</defs>
</svg>
